# xmcd
# 
# Track frame offsets:
#     182
#     19345
#     40967
#     67907
#     93370
#     121587
#     146457
#     173732
# 
# Disc length: 2482
# 
# Revision: 0
# Processed by: cddbd v1.5.2PL0 Copyright (c) Steve Scherf et al.
# Submitted via: BonkEnc v1.0.8
# 
DISCID=5f09b008
DTITLE=松岡直也 - マッシュ
DYEAR=1981
DGENRE=Fusion
TTITLE0=Exotic Perfume
TTITLE1=Poreus
TTITLE2=Love
TTITLE3=Black Season
TTITLE4=Needles Of Dance
TTITLE5=I Say To You
TTITLE6=Nob Rock
TTITLE7=See You Again
EXTD=
EXTT0=
EXTT1=
EXTT2=
EXTT3=
EXTT4=
EXTT5=
EXTT6=
EXTT7=
PLAYORDER=
